<svg version="1" xmlns="http://www.w3.org/2000/svg" width="1333.333" height="1333.333" viewBox="0 0 1000.000000 1000.000000"><path d="M132.8 234.5c-.2.2-3.2.5-6.8.8-7.6.7-19.2 2.7-24 4.2-1 .3-2.7.8-3.7 1-1 .2-4.9 1.5-8.8 2.8C37 261.6 6.2 305.9 10.2 357.7c2.4 31.6 17.4 56.5 47.5 79 6.1 4.5 11.3 8.3 11.6 8.3.2 0 4.2 2.3 8.8 5.1 8.2 4.9 23.5 12.6 45.3 22.8 5.9 2.8 11 5.1 11.3 5.1.2 0 6.8 3.2 14.6 7.1 34.7 17.3 49.1 31.7 50.2 49.9 1.2 22.8-13.3 40.9-38.5 47.5-6.7 1.8-25.6 2.5-33.5 1.3-26.2-4.1-54.3-18.8-77.4-40.7-3.6-3.3-6.5-6-6.6-5.8-.1.1-9.3 11.6-20.4 25.5C12 576.7 2.7 588.6 2.4 589.3c-.4 1.2 9.7 11.6 18.3 18.9 24.2 20.5 58.6 36.7 88.3 41.3 2.5.4 5.3.9 6.2 1 12.9 2.4 36.7 2.2 54.3-.6 9.2-1.4 10.4-1.7 19.3-4.3 40.7-12.2 70.9-41.4 81.7-79 3.1-10.8 3.4-13 4.3-27.4 2.8-45.4-18.1-81.1-63.1-107.6-14-8.3-28.6-15.4-54.8-26.7-45-19.3-61.6-30.4-68.7-45.6-2.2-4.9-2.6-7.2-2.6-14.4 0-7.9.3-9.3 3.4-15.4 6-11.9 19.2-21.2 35.5-25.1 13.3-3.1 32.8-2.4 45.3 1.7 11.4 3.7 21.7 11.1 25.4 18.3 1.8 3.4 2.2 6 2.2 15.7l.1 11.6h67.6l-.1-22.8c-.2-29.3-1.6-35.8-11.1-49.9-14.6-21.7-49.5-38.9-88.4-43.5-6-.7-32.2-1.5-32.7-1zM315.5 272.7v31.8l14.5.1c16 0 18 .6 20.7 5.7 1.6 3 1.7 13.7 1.8 155.2.2 158.3.1 155.8 4.2 164 2 4 7.1 9.3 10.7 11.2 9 4.7 7 4.6 109.1 4.8 52.8 0 98.7-.3 102-.7 16.7-2.2 25.1-9.4 28.6-24.5.8-3.7 1.7-65.8 1-74.1-.1-.9-7.6-1.2-34-1.2h-33.8l-.1 13.7c0 7.6-.5 15-1.1 16.5-.6 1.6-2.5 3.7-4.3 4.8-3.2 1.9-5.1 2-50.5 2-29.2 0-48.2-.4-49.8-1-3.3-1.2-5.2-3.1-6.4-6.2-.5-1.4-.9-65.5-.9-152.9 0-152.3-.1-154.8-3.6-163.3-2-4.7-7.3-10.4-12-12.8-8.3-4.3-12.9-4.7-55.6-4.8h-40.5v31.7zM769.8 248.2c-4.4 12.2-9.1 25.1-19.1 52.3-5.2 14.3-18.1 49.6-28.7 78.5-10.5 28.9-20.7 56.5-22.5 61.5-1.8 4.9-8.5 23.2-14.8 40.5-6.4 17.3-15.5 42.1-20.2 55-4.8 12.9-8.8 23.9-8.9 24.5-.2.5-.6 1.7-.9 2.5-.4.8-1.3 3.4-2.2 5.8-1.9 5.7-5 9.9-8.6 11.7-1.6.9-3.1 1.5-3.4 1.5h-15v63.5l24.5-.1c37.7 0 45.1-1.2 53.4-8.6 8-6.9 10.4-12 22.7-46.8 3.4-9.6 7.9-22.5 10.1-28.5 2.2-6.1 4.1-11.5 4.2-12 .2-.6.5-1.7.9-2.5.3-.8.8-2.3 1.1-3.3.3-.9 1.6-1.7 2.8-1.8 2.9-.1 128.4-.1 131.8 0 2.2.1 2.8.9 4.5 5.8 1 3.2 2.1 6.2 2.4 6.8.4.8 4 11 12.6 35.5 2 5.8 4 11.4 4.5 12.5.4 1.1 1.6 4.2 2.5 7 7 20.4 13.6 28.8 25.8 32.9 7.4 2.5 12.2 2.8 41 3l26.7.2v-63.4l-8.7-.4c-10.3-.5-13.2-2-16.2-8.1-1.5-3.3-16.4-43.7-31.5-85.7-.7-1.9-3.4-9.4-6-16.5-2.6-7.2-6.8-18.6-9.3-25.5-6.8-19-8.2-22.7-12.9-35-.7-1.9-10.6-29.2-21.9-60.5-11.4-31.4-22.8-62.9-25.5-70-2.6-7.2-6.9-19-9.5-26.3l-4.8-13.2H772.4l-2.6 7.2zm44.8 83.1c.3 2.3.7 4.4.9 4.7.2.3 2.2 7.7 4.5 16.5 3.5 13.4 15.1 50.3 18 57 .5 1.1 2.1 5.6 3.6 10 1.4 4.4 6.6 19.7 11.5 33.9 4.9 14.3 8.9 26.1 8.9 26.3 0 .1-23 .3-51 .3h-51l1.6-3.8c.8-2 1.7-4.4 1.9-5.2.4-1.6 6.2-18.6 20.5-60 11.7-33.8 16-48.1 21.6-71 2.5-10.2 4.8-19.2 5.1-20 .7-1.7 2.9 4.9 3.9 11.3zM28.2 673.1c-16 1.9-26.6 13-25.7 26.7.9 12.2 6.1 17.7 25.6 27 11.3 5.3 16.9 9.9 16.9 13.7 0 12.7-18.7 14.6-31.5 3.3-2-1.7-3.7-2.9-3.8-2.7-.2.2-2.3 2.8-4.7 5.8-5.2 6.3-5.1 6.8 3.9 12.8 7 4.8 11 6.2 19.8 7 20.1 1.8 34.7-11.2 33-29.3-1.1-11.1-6.3-16.9-21.7-24.1-13.3-6.1-15.8-7.5-18-9.8-4.2-4.5-2.6-11.2 3.2-13.6 8.9-3.7 20 .1 19.2 6.7-.3 2.6.9 3 9.1 3 5.9-.1 6-.1 6.2-3.1.3-6.2-.9-12.2-3.1-14.7-5.1-6-17.9-9.9-28.4-8.7zM676.4 674c-.9.3-3.2 4.8-5.1 10-4.4 12.1-10.4 28.5-15.5 42.5-2.2 6-4.2 11.7-4.5 12.5-.4.8-1.4 3.5-2.3 6-1.3 3.6-2.1 4.6-4.3 4.8-2.7.3-2.7.4-2.7 7.8v7.4l8-.3c10-.4 10.8-1 15.3-13.7l3.5-9.5h14.3c7.9-.1 14.9.3 15.6.8.6.5 2.4 4.4 3.8 8.8 1.5 4.4 3.7 9.2 5 10.7 2.1 2.5 3 2.7 10.3 2.9l7.9.1-.1-7.1c-.1-6.7-.2-7.1-2.6-7.7-2.7-.6-2.4.1-19.6-47.5-5.4-14.9-10.1-27.4-10.5-27.9-.8-.9-14.1-1.4-16.5-.6zm8.3 21c.1 1.1 2.5 8.7 5.2 17 2.8 8.3 5.1 15.1 5.1 15.3 0 .1-4.9.2-11 .2-6 0-11-.2-11-.5s2-6.5 4.4-13.7c2.5-7.3 4.8-14.8 5.2-16.8.7-3.8 1.9-4.7 2.1-1.5zM753.1 675c-2.5.8-6 2.5-7.8 3.8-3.8 2.7-7.2 9.7-7.5 15.7-.3 4.2-.5 4.5-3.3 4.6-1.6.1-3.3.1-3.7 0-1-.1-1 0-1.2 7.1-.1 3.2.2 5.9.6 5.9 1.1.2 4.6.6 6.1.8 1 .1 1.2 5.8 1.2 25.8v25.8l8.3.2 8.2.2v-52.5l6.8.1h6.7l.3-6.7.3-6.6h-6.8c-6.6.1-6.8 0-7.1-2.6-.4-3.2 4.5-8.5 8-8.7 1.3-.1 3.4-.2 4.8-.3 2.4-.1 2.5-.4 2.7-6.5.2-4.3-.1-6.8-1-7.3-1.9-1.2-10.3-.6-15.6 1.2zM836.7 674c-.8.3-1.2 3.1-1.3 7.7v7.3H850v-7.5c0-7.1-.1-7.5-2.2-7.6-1.3 0-4-.1-6.1-.2-2.1-.1-4.3 0-5 .3zM69 680.5c0 3.6-.1 6.8-.2 7.2-.2.4 1.1.8 2.8.9 1.7 0 3.6.4 4.2.8.7.4 1 12.4 1.1 36.9V764c.1 1.3 1.6 1.6 8.1 1.6h8l.1-3.1v-17c0-9.9.5-15.4 1.6-18.9 3.6-11.4 17.7-17.1 24.5-9.9 2.2 2.4 2.3 3.2 2.8 23.8.4 17.8.8 21.7 2.1 23 1.2 1.2 4.1 1.7 11.3 1.9 10.9.4 10.8.4 10.8-6.7.1-7.1-.1-7.6-1.9-7.3-1 .2-2.8 0-4-.5-2-.7-2.1-1.3-2.1-16.6.1-8.7-.2-17.4-.7-19.3-2.3-10.4-8.6-15.7-19.4-16.3-9.5-.6-18.5 2.9-23 9.1l-2 2.7.1-11.5c0-18.4-.1-19.6-2.1-22.1-1.7-2.2-2.7-2.4-12-2.6l-10.1-.2v6.4zM255 681.7v7.5l3.4-.3c1.9-.2 3.9 0 4.3.5.4.4.8 16.5.9 35.6.1 37.8.3 39.2 5.6 40.2 1.3.2 12.5.3 25.1.3 27.9-.1 26.9.4 26.9-13 0-4.8-.2-8.9-.5-9.1-.2-.2-3.6-.5-7.5-.7l-7.2-.2v3.6c0 2.4-.5 3.9-1.6 4.3-2.6 1-22.2.7-22.9-.4-.3-.5-.6-16.4-.6-35.2-.1-27.6-.4-34.8-1.5-37.1-1.7-3.1-.8-2.9-14.1-3.2l-10.3-.3v7.5zM509.7 674.8c-1 1.8-.8 13.2.2 13.3.6.1 2 .3 3.1.4 1.1.1 2.5.3 3 .4.6 0 1 3.5 1 8.2v8l-3.1-2.2c-10.5-7.5-28.1-5.2-36.9 4.8-9.3 10.6-11.3 29.9-4.4 43.5 3.1 6.1 5 8.4 9.4 11.1 5.6 3.5 9.8 4.6 16.9 4.4 7.2-.3 14.5-3.5 17.6-7.9 1.5-2.2 1.5-2.2 1.5-.1 0 1.1.8 3.1 1.8 4.3 1.6 2 2.8 2.3 11.4 2.5l9.6.2.4-5.3c.4-7.4-.2-8.9-3.6-9.1-1.6-.1-3.1-.5-3.5-.8-.3-.4-.6-16.3-.6-35.3-.1-19.1-.4-35.7-.8-36.9-.4-1.1-1.5-2.5-2.5-2.9-2.2-1-20-1.5-20.5-.6zm-3.5 38.7c8.7 1.8 13.8 17 9.6 28.4-4.4 11.7-18.5 14.8-25.9 5.7-3.1-3.7-5.1-11.8-4.4-17.7 1-8.9 5.5-15 12.4-16.9 2.6-.7 3.2-.6 8.3.5zM896.7 698.1c-9.3 1.4-14.9 4.1-20.7 10-7.5 7.5-9.8 13.5-9.6 24.9.2 6.9.7 9.6 2.9 14.1 5 10.5 14.5 17.1 26.8 18.7 11.1 1.4 24.7-2.7 30.9-9.3l2.1-2.2-3.4-5.6-3.3-5.6-3 2.4c-7 5.8-19.2 7.8-26.1 4.2-11.1-5.8-13.9-20-6.1-31 6.1-8.5 23.8-9.2 23.8-.9v2.8l7.3-.1 7.2-.1-.1-6.2c-.1-5.1-.6-6.8-2.5-8.8-5.2-5.6-16.5-8.7-26.2-7.3zM958.7 698.1c-7.9.9-14.3 3.5-16.7 6.9-2.3 3.3-2.9 12.9-.7 13.1 3.4.3 12 0 13.2-.5.8-.3 1.2-1.1.9-1.9-.2-.7.4-2.1 1.5-3.1 2.4-2.2 10.5-2.5 13.9-.7 2.5 1.4 4.8 5.6 4.7 9 0 2.1-.5 2.5-3.5 2.7-17 1.2-24.6 3.4-30.7 8.7-6.6 5.8-8.2 14.6-4 22.7 6.4 12.8 27.6 15.2 36.9 4.2l2.6-3.1.6 2.7c1.1 5.4 1.8 5.7 12.6 5.8l10 .2V751h-3.5c-2.1 0-3.6-.5-3.6-1.3-.1-.6-.3-7.5-.4-15.3-.3-16.8-.9-20.5-4.1-26.2-4.4-7.5-16.3-11.6-29.7-10.1zm17.3 39.3c0 2.6-2.2 8.2-4.2 10.7-7.3 9-23.1 4.8-19.6-5.3 1.7-4.8 8.2-7.5 18.6-7.7 4.8-.1 5.2.1 5.2 2.3zM176.8 699.5c-18.2 4.8-28.1 23.7-22.8 43.2 5.9 21.2 30.8 30.6 52 19.7 8.7-4.5 8.7-4.5 5-10.6-1.8-2.9-3.3-5.4-3.4-5.5-.2-.2-2.9 1.1-6.2 2.9-4.9 2.7-7 3.2-12.5 3.2-5.9.1-7.2-.3-11-2.9-4.1-2.9-7.4-7.8-8.1-12-.3-1.9.4-2 21.2-2.1 11.8-.1 22.1-.2 22.8-.3 1-.1 1.2-1.8.8-7.6-.8-12.8-6.8-22.5-16.4-26.6-5.5-2.4-15.2-3-21.4-1.4zm15.4 13.7c2.4 1.6 5.8 7.3 5.8 9.7 0 .7-4.5 1.1-14 1.1-7.7 0-14-.4-14-.9 0-1.7 4.7-7.6 7.7-9.7 3.8-2.6 10.7-2.7 14.5-.2zM350.4 699.5c-13.4 3.1-22 12.9-24.3 27.5-1.6 10.2 1.9 22.4 8.4 29.3 10.6 11.1 29.6 13.8 44.4 6.2 9-4.6 8.9-4.4 5.2-10.9-1.8-3.1-3.6-5.6-4-5.4-.3.2-3 1.6-6 3.2-12.4 6.4-25.7 2.8-30.1-8.1-2.2-5.8-2.3-5.8 21.4-5.8h21.7l.6-2.3c.7-2.9-.3-11.7-1.8-16.2-2.7-7.9-10.2-15.2-17.6-17.4-4.1-1.3-12.8-1.3-17.9-.1zm12.9 12.6c4 2.1 7.7 7.4 7.7 11 0 .5-6 .9-13.9.9h-14l1-2.8c2.8-7.7 12.7-12.4 19.2-9.1zM416 699.5c-10.2 2.1-14 6-14 14.4v5.1h7.5c6.6 0 7.5-.2 7.5-1.8 0-4 2.5-5.6 8.9-5.7 5.2 0 6.4.4 8.5 2.5 2.3 2.4 4.5 10 2.9 10-15.6.8-26.5 2.9-30.8 6.2-4.2 3.2-6.7 6-8 9.1-4.5 10.7 1.5 22.8 12.9 26.2 9.8 2.9 17.9 1.1 24.2-5.4l3.1-3.2.6 3c.4 1.7 1.6 3.5 2.9 4.2 3.2 1.7 19.8 1.9 19.9.2 0-.7.1-2.7.1-4.3 0-8.4-.2-9.1-1.9-8.9-6.3.6-6 1.3-5.9-14.9.2-22.9-2.5-30.1-13-34.9-6.2-2.8-16.9-3.6-25.4-1.8zm21.6 39c.2 6.1-5.5 13.7-11.3 15.1-9.3 2.4-16.4-6.9-10.1-13.2 2.5-2.5 11.8-5.1 18.1-4.9 2.8.1 3.2.4 3.3 3zM564.7 699.6c-7.3 1.9-12.8 6-14.8 11.2-1.6 4-1.3 10.6.6 14.2 3.1 6 6.4 8.2 24.2 16 6.6 2.9 8.7 5.2 7.9 8.3-1.7 6.8-14.2 5.8-24.4-2-1.9-1.4-3.7-2.1-4.1-1.7-.4.5-2.2 2.8-4 5.1l-3.2 4.2 2.8 2.9c8.3 8.5 27.8 11.7 38.1 6.2 5.8-3 8-5.2 10-9.8 1.9-4.3 2.1-7 .8-12.7-1.4-6.1-7.8-10.9-21.4-16-9.4-3.5-12.7-6.2-11.9-9.7.7-2.8 2.3-3.7 7.7-4.4 6.2-.8 9.7 1.6 9.1 6.3-.1 1 1.9 1.3 7.4 1.3h7.5v-5.4c0-6.4-2-9.4-8.4-12.4-5.4-2.6-17.2-3.4-23.9-1.6zM811.3 699.6c-3.5 1.2-10.2 7.4-13 11.9-1 1.8-1.1 1.7-.9-1 .5-4.6-1.1-9.1-3.6-10.2-1.3-.6-6.3-1.1-11.3-1.1l-9-.2.1 6.4c.1 7.3.7 8.6 3.4 7.9 4.5-1.2 4.7.2 4.7 26.4v24.8l8 .1 8.1.1.4-17.6c.3-15.6.6-18.1 2.5-21.6 3.8-7.3 9.4-10.8 16.6-10.6l3.7.1V698.3h-3c-1.6 0-4.6.6-6.7 1.3zM827.6 699.8c-.3.3-.6 3.4-.6 6.9 0 6.3 0 6.3 2.9 6.3 1.6 0 3.3.6 3.9 1.2.6.8 1 9.9 1 23.7l-.1 22.5 2.6 2.2c2.2 1.9 3.7 2.2 12.1 2.2 7.5 0 9.6-.3 9.7-1.4.7-11 .1-13.5-3.1-12.7-4.4 1.2-4.7-.3-4.8-24.4v-22.7l-2.5-2.2c-2.1-1.8-3.8-2.1-11.5-2.2-5 0-9.3.2-9.6.6zM228.9 750.2c-.5 7.6-.2 14.8.6 14.9 3.1.4 13.2.5 14.2.2.7-.3 1.1-3.3 1.2-8.4l.1-7.9h-8c-5.7 0-8 .4-8.1 1.2zM612.9 754c-.1 2.7-.1 5.9-.1 7 0 4.6-.1 4.6 7.5 4.4 3.9-.1 7.5-.2 7.8-.3.3 0 .6-3.7.7-8.1l.1-8H613l-.1 5z"/></svg>