<svg width="24" height="25" viewBox="0 0 24 25" fill="none" xmlns="http://www.w3.org/2000/svg">
<path d="M21.1199 13.8428V10.7428L17.9519 10.4428C17.7599 9.84277 17.6639 9.34277 17.3759 8.84277L19.5839 6.14277L17.4719 3.94277L14.8799 6.14277C14.3999 5.74277 13.8239 5.34277 13.3439 5.34277L13.0559 2.34277H10.0799L9.79192 5.34277H9.88792C9.21592 5.34277 8.63992 5.84277 8.06392 6.14277H8.15992L5.47192 3.84277L3.35992 6.04277L5.56792 8.74277V8.64277C5.27992 9.24277 4.79992 9.94277 4.79992 10.5428V10.3428L1.91992 10.6428V13.7428L4.79992 14.0428V13.8428C4.79992 14.5428 5.27992 15.1428 5.56792 15.7428L5.47192 15.6428L3.35992 18.3428L5.47192 20.5428L8.06392 18.2428H7.96792C8.63992 18.8428 9.21592 19.3428 9.79192 19.3428H9.69592L9.98392 22.3428H12.9599L13.2479 19.3428C13.8239 19.3428 14.3039 18.8428 14.7839 18.6428L17.3759 20.8428L19.4879 18.6428L17.2799 15.9428C17.5679 15.4428 17.5679 14.8428 17.7599 14.3428L21.1199 13.8428Z" stroke="#9CFDFF" stroke-width="1.5" stroke-miterlimit="10" stroke-linejoin="round"/>
<path d="M11.3279 16.9427C13.7668 16.9427 15.7439 14.8832 15.7439 12.3427C15.7439 9.80217 13.7668 7.74268 11.3279 7.74268C8.88898 7.74268 6.91187 9.80217 6.91187 12.3427C6.91187 14.8832 8.88898 16.9427 11.3279 16.9427Z" stroke="#9CFDFF" stroke-width="1.5" stroke-miterlimit="10" stroke-linejoin="round"/>
</svg>
