<svg width="36" height="36" viewBox="0 0 36 36" fill="none" xmlns="http://www.w3.org/2000/svg">
<path d="M7.38452 28.5V15H13.2922V28.5" stroke="#9CFDFF" stroke-width="1.2" stroke-miterlimit="10" stroke-linejoin="round"/>
<path d="M13.2925 28.5V10.5H19.2002V28.5" stroke="#9CFDFF" stroke-width="1.2" stroke-miterlimit="10" stroke-linejoin="round"/>
<path d="M19.1997 28.5V19.5H25.1074V28.5" stroke="#9CFDFF" stroke-width="1.2" stroke-miterlimit="10" stroke-linejoin="round"/>
<path d="M2.95386 28.5H29.5385" stroke="#9CFDFF" stroke-width="1.5" stroke-miterlimit="10" stroke-linejoin="round"/>
<path d="M16.3337 5.71875H15.7463V4.58496C15.7463 4.44727 15.7493 4.32129 15.7551 4.20703C15.719 4.25098 15.6741 4.29688 15.6204 4.34473L15.3772 4.54541L15.0769 4.17627L15.8123 3.57715H16.3337V5.71875Z" fill="#9CFDFF"/>
<path d="M16.3337 5.71875V7.21875H17.8337V5.71875H16.3337ZM15.7463 5.71875H14.2463V7.21875H15.7463V5.71875ZM15.7551 4.20703L17.2532 4.28385L17.4862 -0.260119L14.5965 3.25437L15.7551 4.20703ZM15.6204 4.34473L16.5751 5.50162L16.597 5.48357L16.6182 5.46472L15.6204 4.34473ZM15.3772 4.54541L14.2136 5.49199L15.1669 6.66385L16.332 5.7023L15.3772 4.54541ZM15.0769 4.17627L14.1294 3.01338L12.9674 3.96012L13.9133 5.12285L15.0769 4.17627ZM15.8123 3.57715V2.07715H15.2786L14.8648 2.41425L15.8123 3.57715ZM16.3337 3.57715H17.8337V2.07715H16.3337V3.57715ZM16.3337 4.21875H15.7463V7.21875H16.3337V4.21875ZM17.2463 5.71875V4.58496H14.2463V5.71875H17.2463ZM17.2463 4.58496C17.2463 4.46793 17.2488 4.36801 17.2532 4.28385L14.2571 4.13021C14.2497 4.27456 14.2463 4.4266 14.2463 4.58496H17.2463ZM14.5965 3.25437C14.6091 3.23901 14.6183 3.22932 14.6223 3.22522C14.6264 3.22104 14.6269 3.22091 14.6226 3.22474L16.6182 5.46472C16.7154 5.37812 16.8176 5.2767 16.9138 5.15969L14.5965 3.25437ZM14.6656 3.18784L14.4224 3.38852L16.332 5.7023L16.5751 5.50162L14.6656 3.18784ZM16.5408 3.59883L16.2405 3.22969L13.9133 5.12285L14.2136 5.49199L16.5408 3.59883ZM16.0244 5.33916L16.7597 4.74004L14.8648 2.41425L14.1294 3.01338L16.0244 5.33916ZM15.8123 5.07715H16.3337V2.07715H15.8123V5.07715ZM14.8337 3.57715V5.71875H17.8337V3.57715H14.8337Z" fill="#9CFDFF"/>
<path d="M9.95142 11.25H8.39722V10.8691L8.92017 10.3403C9.06958 10.1841 9.16724 10.0776 9.21313 10.021C9.25903 9.96338 9.29077 9.91406 9.30835 9.87305C9.3269 9.83203 9.33618 9.78906 9.33618 9.74414C9.33618 9.68848 9.31812 9.64453 9.28198 9.6123C9.24585 9.58008 9.19507 9.56396 9.12964 9.56396C9.06226 9.56396 8.9939 9.5835 8.92456 9.62256C8.8562 9.66064 8.77856 9.71729 8.69165 9.79248L8.37378 9.42041C8.48413 9.32178 8.5769 9.25146 8.6521 9.20947C8.72729 9.1665 8.80884 9.13379 8.89673 9.11133C8.9856 9.08887 9.08521 9.07764 9.19556 9.07764C9.33423 9.07764 9.45776 9.10205 9.56616 9.15088C9.67554 9.19971 9.76001 9.26953 9.81958 9.36035C9.88013 9.4502 9.9104 9.55127 9.9104 9.66357C9.9104 9.74756 9.89966 9.8252 9.87817 9.89648C9.85767 9.96777 9.82544 10.0381 9.78149 10.1074C9.73755 10.1758 9.67896 10.248 9.60571 10.3242C9.53345 10.4004 9.37866 10.5449 9.14136 10.7578V10.7725H9.95142V11.25Z" fill="#9CFDFF"/>
<path d="M9.95142 11.25V12.75H11.4514V11.25H9.95142ZM8.39722 11.25H6.89722V12.75H8.39722V11.25ZM8.39722 10.8691L7.33066 9.81441L6.89722 10.2527V10.8691H8.39722ZM8.92017 10.3403L9.98672 11.3951L9.99557 11.3861L10.0043 11.377L8.92017 10.3403ZM9.21313 10.021L10.3786 10.9654L10.3864 10.9556L9.21313 10.021ZM9.30835 9.87305L7.94169 9.2548L7.93552 9.26842L7.92963 9.28217L9.30835 9.87305ZM8.92456 9.62256L9.65462 10.9329L9.66083 10.9294L8.92456 9.62256ZM8.69165 9.79248L7.55118 10.7668L8.53161 11.9144L9.67308 10.9269L8.69165 9.79248ZM8.37378 9.42041L7.37417 8.30203L6.28054 9.27952L7.23331 10.3947L8.37378 9.42041ZM8.6521 9.20947L9.38345 10.5191L9.3899 10.5155L9.39631 10.5118L8.6521 9.20947ZM8.89673 9.11133L8.52916 7.65705L8.52533 7.65803L8.89673 9.11133ZM9.56616 9.15088L8.9501 10.5185L8.95469 10.5206L9.56616 9.15088ZM9.81958 9.36035L8.56531 10.183L8.57045 10.1909L8.57568 10.1986L9.81958 9.36035ZM9.87817 9.89648L8.44198 9.46366L8.43925 9.47271L8.43664 9.4818L9.87817 9.89648ZM9.78149 10.1074L11.0433 10.9186L11.0485 10.9104L9.78149 10.1074ZM9.60571 10.3242L8.52444 9.28453L8.51752 9.29183L9.60571 10.3242ZM9.14136 10.7578L8.13969 9.64127L7.64136 10.0883V10.7578H9.14136ZM9.14136 10.7725H7.64136V12.2725H9.14136V10.7725ZM9.95142 10.7725H11.4514V9.27246H9.95142V10.7725ZM9.95142 9.75H8.39722V12.75H9.95142V9.75ZM9.89722 11.25V10.8691H6.89722V11.25H9.89722ZM9.46377 11.9239L9.98672 11.3951L7.85361 9.2856L7.33066 9.81441L9.46377 11.9239ZM10.0043 11.377C10.1469 11.2278 10.2875 11.0777 10.3785 10.9654L8.04774 9.07662C8.05473 9.06799 8.04416 9.0813 8.00016 9.12926C7.96082 9.17214 7.90674 9.22973 7.83606 9.30365L10.0043 11.377ZM10.3864 10.9556C10.4692 10.8517 10.5936 10.682 10.6871 10.4639L7.92963 9.28217C7.96212 9.20637 7.99385 9.15413 8.01 9.12903C8.02728 9.10219 8.03897 9.08753 8.03989 9.08638L10.3864 10.9556ZM10.675 10.4913C10.7813 10.2564 10.8362 10.0027 10.8362 9.74414H7.83618C7.83618 9.57538 7.87255 9.40762 7.94169 9.2548L10.675 10.4913ZM10.8362 9.74414C10.8362 9.33162 10.6849 8.8536 10.2804 8.49286L8.28356 10.7317C8.13541 10.5996 8.01433 10.432 7.9353 10.2398C7.85832 10.0526 7.83618 9.87889 7.83618 9.74414H10.8362ZM10.2804 8.49286C9.8854 8.14056 9.4325 8.06396 9.12964 8.06396V11.064C8.95764 11.064 8.6063 11.0196 8.28356 10.7317L10.2804 8.49286ZM9.12964 8.06396C8.76117 8.06396 8.44152 8.17302 8.18829 8.31569L9.66083 10.9294C9.54627 10.994 9.36334 11.064 9.12964 11.064V8.06396ZM8.19451 8.31221C8.00554 8.41749 7.8422 8.54392 7.71023 8.65811L9.67308 10.9269C9.68178 10.9193 9.6884 10.9139 9.69299 10.9102C9.6976 10.9065 9.69962 10.905 9.69913 10.9054C9.69868 10.9057 9.69493 10.9084 9.688 10.9129C9.68111 10.9174 9.66993 10.9244 9.65461 10.9329L8.19451 8.31221ZM9.83212 8.81814L9.51425 8.44607L7.23331 10.3947L7.55118 10.7668L9.83212 8.81814ZM9.37339 10.5388C9.38926 10.5246 9.40223 10.5135 9.41243 10.505C9.42269 10.4965 9.4292 10.4914 9.43215 10.4892C9.43521 10.4868 9.4331 10.4886 9.42613 10.4932C9.41937 10.4978 9.40495 10.5071 9.38345 10.5191L7.92075 7.89984C7.70488 8.0204 7.51707 8.1743 7.37417 8.30203L9.37339 10.5388ZM9.39631 10.5118C9.34914 10.5388 9.30452 10.5553 9.26813 10.5646L8.52533 7.65803C8.31316 7.71226 8.10545 7.79422 7.90789 7.90711L9.39631 10.5118ZM9.26429 10.5656C9.21155 10.5789 9.18487 10.5776 9.19556 10.5776V7.57764C8.98554 7.57764 8.75964 7.59881 8.52917 7.65706L9.26429 10.5656ZM9.19556 10.5776C9.15687 10.5776 9.06496 10.5703 8.9501 10.5185L10.1822 7.78323C9.85056 7.63383 9.51159 7.57764 9.19556 7.57764V10.5776ZM8.95469 10.5206C8.8298 10.4648 8.67922 10.3567 8.56531 10.183L11.0738 8.53766C10.8408 8.18237 10.5213 7.93458 10.1776 7.78117L8.95469 10.5206ZM8.57568 10.1986C8.46295 10.0313 8.4104 9.83838 8.4104 9.66357H11.4104C11.4104 9.26416 11.2973 8.86904 11.0635 8.52207L8.57568 10.1986ZM8.4104 9.66357C8.4104 9.6194 8.41614 9.54939 8.44198 9.46366L11.3144 10.3293C11.3832 10.101 11.4104 9.87572 11.4104 9.66357H8.4104ZM8.43664 9.4818C8.45951 9.40227 8.49017 9.34287 8.51453 9.30442L11.0485 10.9104C11.1607 10.7333 11.2558 10.5333 11.3197 10.3112L8.43664 9.4818ZM8.51973 9.29629C8.53138 9.27816 8.53896 9.2688 8.53946 9.26819C8.54005 9.26745 8.53565 9.27293 8.52446 9.28456L10.687 11.3639C10.8088 11.2372 10.9338 11.0889 11.0433 10.9186L8.51973 9.29629ZM8.51752 9.29183C8.51846 9.29084 8.51086 9.2988 8.49052 9.31858C8.47127 9.3373 8.44533 9.36199 8.4117 9.39339C8.34424 9.45639 8.25422 9.53853 8.13969 9.64127L10.143 11.8744C10.3724 11.6686 10.573 11.484 10.6939 11.3566L8.51752 9.29183ZM7.64136 10.7578V10.7725H10.6414V10.7578H7.64136ZM9.14136 12.2725H9.95142V9.27246H9.14136V12.2725ZM8.45142 10.7725V11.25H11.4514V10.7725H8.45142Z" fill="#9CFDFF"/>
<path d="M23.1719 13.7729C23.1719 13.9058 23.1313 14.02 23.0503 14.1157C22.9692 14.2104 22.8521 14.2793 22.6987 14.3223V14.3311C23.0562 14.376 23.2349 14.5449 23.2349 14.8379C23.2349 15.0371 23.1558 15.1938 22.9976 15.3081C22.8403 15.4224 22.6216 15.4795 22.3413 15.4795C22.2261 15.4795 22.1191 15.4712 22.0205 15.4546C21.9229 15.438 21.8169 15.4077 21.7026 15.3638V14.8833C21.7964 14.9312 21.8916 14.9668 21.9883 14.9902C22.0859 15.0127 22.1758 15.0239 22.2578 15.0239C22.3848 15.0239 22.4771 15.0063 22.5347 14.9712C22.5933 14.9351 22.6226 14.8789 22.6226 14.8027C22.6226 14.7441 22.6074 14.6992 22.5771 14.668C22.5469 14.6357 22.498 14.6118 22.4307 14.5962C22.3633 14.5796 22.2754 14.5713 22.167 14.5713H22.0352V14.1362H22.1699C22.4639 14.1362 22.6108 14.061 22.6108 13.9106C22.6108 13.854 22.5889 13.812 22.5449 13.7847C22.502 13.7573 22.4438 13.7437 22.3706 13.7437C22.2339 13.7437 22.0923 13.7896 21.9458 13.8813L21.7056 13.4946C21.8188 13.4165 21.9346 13.3608 22.0527 13.3276C22.1719 13.2944 22.3081 13.2778 22.4614 13.2778C22.6831 13.2778 22.8569 13.3218 22.9829 13.4097C23.1089 13.4976 23.1719 13.6187 23.1719 13.7729Z" fill="#9CFDFF"/>
<path d="M23.0503 14.1157L24.19 15.091L24.1949 15.0852L23.0503 14.1157ZM22.6987 14.3223L22.2939 12.8779L21.1987 13.1849V14.3223H22.6987ZM22.6987 14.3311H21.1987V15.6543L22.5117 15.8193L22.6987 14.3311ZM22.9976 15.3081L22.1193 14.0921L22.1157 14.0947L22.9976 15.3081ZM22.0205 15.4546L21.7691 16.9334L21.7715 16.9338L22.0205 15.4546ZM21.7026 15.3638H20.2026V16.394L21.1642 16.7638L21.7026 15.3638ZM21.7026 14.8833L22.3846 13.5473L20.2026 12.4336V14.8833H21.7026ZM21.9883 14.9902L21.6349 16.448L21.6435 16.4501L21.6521 16.4521L21.9883 14.9902ZM22.5347 14.9712L23.316 16.2517L23.322 16.2479L22.5347 14.9712ZM22.5771 14.668L21.4839 15.695L21.4918 15.7034L21.4998 15.7117L22.5771 14.668ZM22.4307 14.5962L22.0718 16.0526L22.0818 16.0551L22.0918 16.0574L22.4307 14.5962ZM22.0352 14.5713H20.5352V16.0713H22.0352V14.5713ZM22.0352 14.1362V12.6362H20.5352V14.1362H22.0352ZM22.5449 13.7847L21.7396 15.0502L21.746 15.0542L21.7525 15.0583L22.5449 13.7847ZM21.9458 13.8813L20.6716 14.6729L21.4663 15.952L22.7423 15.1524L21.9458 13.8813ZM21.7056 13.4946L20.854 12.2598L19.6769 13.0716L20.4314 14.2862L21.7056 13.4946ZM22.0527 13.3276L21.65 11.8827L21.647 11.8836L22.0527 13.3276ZM21.6719 13.7729C21.6719 13.6848 21.6857 13.5754 21.7278 13.4568C21.7703 13.3371 21.833 13.232 21.9057 13.1463L24.1949 15.0852C24.5197 14.7017 24.6719 14.2381 24.6719 13.7729H21.6719ZM21.9106 13.1405C22.0698 12.9544 22.2401 12.893 22.2939 12.8779L23.1035 15.7666C23.464 15.6656 23.8687 15.4665 24.19 15.0909L21.9106 13.1405ZM21.1987 14.3223V14.3311H24.1987V14.3223H21.1987ZM22.5117 15.8193C22.5044 15.8184 22.4539 15.8117 22.3775 15.7812C22.2986 15.7498 22.185 15.6899 22.0704 15.5815C21.8031 15.3289 21.7349 15.0185 21.7349 14.8379H24.7349C24.7349 14.3644 24.5772 13.823 24.1313 13.4014C23.725 13.0173 23.2402 12.8873 22.8858 12.8428L22.5117 15.8193ZM21.7349 14.8379C21.7349 14.7346 21.7567 14.5869 21.8364 14.429C21.9167 14.27 22.0258 14.1596 22.1193 14.0921L23.8758 16.5241C24.434 16.121 24.7349 15.5069 24.7349 14.8379H21.7349ZM22.1157 14.0947C22.211 14.0255 22.2941 13.9964 22.3365 13.9853C22.3763 13.9749 22.3827 13.9795 22.3413 13.9795V16.9795C22.8037 16.9795 23.375 16.8881 23.8794 16.5215L22.1157 14.0947ZM22.3413 13.9795C22.2972 13.9795 22.2746 13.9763 22.2695 13.9754L21.7715 16.9338C21.9637 16.9661 22.1549 16.9795 22.3413 16.9795V13.9795ZM22.2719 13.9758C22.2829 13.9777 22.2858 13.9788 22.2799 13.9771C22.274 13.9755 22.2612 13.9715 22.2411 13.9638L21.1642 16.7638C21.3505 16.8355 21.5537 16.8967 21.7691 16.9334L22.2719 13.9758ZM23.2026 15.3638V14.8833H20.2026V15.3638H23.2026ZM21.0207 16.2193C21.2128 16.3174 21.4179 16.3954 21.6349 16.448L22.3417 13.5325C22.3653 13.5382 22.38 13.5449 22.3846 13.5473L21.0207 16.2193ZM21.6521 16.4521C21.8367 16.4945 22.041 16.5239 22.2578 16.5239V13.5239C22.3106 13.5239 22.3352 13.5309 22.3245 13.5284L21.6521 16.4521ZM22.2578 16.5239C22.4554 16.5239 22.8944 16.5089 23.316 16.2517L21.7534 13.6907C21.9259 13.5855 22.0749 13.5499 22.1416 13.5372C22.2137 13.5235 22.2576 13.5239 22.2578 13.5239V16.5239ZM23.322 16.2479C23.8772 15.9056 24.1226 15.333 24.1226 14.8027H21.1226C21.1226 14.6478 21.1531 14.4335 21.2707 14.2081C21.3919 13.9759 21.5672 13.8055 21.7473 13.6944L23.322 16.2479ZM24.1226 14.8027C24.1226 14.4929 24.0389 14.0211 23.6545 13.6243L21.4998 15.7117C21.1759 15.3774 21.1226 14.9954 21.1226 14.8027H24.1226ZM23.6704 13.641C23.3523 13.3023 22.9753 13.1827 22.7695 13.135L22.0918 16.0574C22.0208 16.0409 21.7414 15.9692 21.4839 15.695L23.6704 13.641ZM22.7895 13.1397C22.5583 13.0828 22.3368 13.0713 22.167 13.0713V16.0713C22.1842 16.0713 22.1852 16.072 22.1732 16.0709C22.1624 16.0699 22.1259 16.066 22.0718 16.0526L22.7895 13.1397ZM22.167 13.0713H22.0352V16.0713H22.167V13.0713ZM23.5352 14.5713V14.1362H20.5352V14.5713H23.5352ZM22.0352 15.6362H22.1699V12.6362H22.0352V15.6362ZM22.1699 15.6362C22.3962 15.6362 22.7926 15.6154 23.1838 15.4152C23.4012 15.304 23.6498 15.1202 23.8401 14.8282C24.0354 14.5284 24.1108 14.2038 24.1108 13.9106H21.1108C21.1108 13.6927 21.168 13.4339 21.3265 13.1905C21.48 12.9549 21.6736 12.8181 21.8174 12.7445C22.0617 12.6195 22.2376 12.6362 22.1699 12.6362V15.6362ZM24.1108 13.9106C24.1108 13.3943 23.8688 12.8418 23.3374 12.5111L21.7525 15.0583C21.5688 14.944 21.3897 14.7698 21.2653 14.5321C21.1441 14.3004 21.1108 14.0775 21.1108 13.9106H24.1108ZM23.3502 12.5192C22.983 12.2855 22.6105 12.2437 22.3706 12.2437V15.2437C22.2772 15.2437 22.0209 15.2292 21.7396 15.0502L23.3502 12.5192ZM22.3706 12.2437C21.8864 12.2437 21.4719 12.4081 21.1493 12.6103L22.7423 15.1524C22.7127 15.171 22.5814 15.2437 22.3706 15.2437V12.2437ZM23.22 13.0898L22.9797 12.7031L20.4314 14.2862L20.6716 14.6729L23.22 13.0898ZM22.5572 14.7294C22.5507 14.7339 22.5175 14.7551 22.4585 14.7717L21.647 11.8836C21.3517 11.9665 21.087 12.0991 20.854 12.2598L22.5572 14.7294ZM22.4554 14.7726C22.4351 14.7782 22.4243 14.7794 22.4257 14.7793C22.4271 14.7791 22.4385 14.7778 22.4614 14.7778V11.7778C22.2031 11.7778 21.9272 11.8055 21.65 11.8827L22.4554 14.7726ZM22.4614 14.7778C22.5063 14.7778 22.3394 14.7897 22.1246 14.6399L23.8412 12.1795C23.3744 11.8538 22.8599 11.7778 22.4614 11.7778V14.7778ZM22.1246 14.6399C22.0142 14.5628 21.8875 14.4386 21.7939 14.2586C21.7004 14.0789 21.6719 13.905 21.6719 13.7729H24.6719C24.6719 13.131 24.3714 12.5494 23.8412 12.1795L22.1246 14.6399Z" fill="#9CFDFF"/>
</svg>
